<?xml version="1.0" encoding="utf-8"?>
<!-- Generator: Adobe Illustrator 23.1.1, SVG Export Plug-In . SVG Version: 6.00 Build 0)  -->
<svg version="1.1" id="Layer_1" xmlns="http://www.w3.org/2000/svg" xmlns:xlink="http://www.w3.org/1999/xlink" x="0px" y="0px"
	 viewBox="0 0 579.4 109" style="enable-background:new 0 0 579.4 109;" xml:space="preserve">
<style type="text/css">
	.st0{fill-rule:evenodd;clip-rule:evenodd;fill:url(#SVGID_1_);}
	.st1{fill:#363636;}
</style>
<title>logo</title>
<linearGradient id="SVGID_1_" gradientUnits="userSpaceOnUse" x1="51.712" y1="1" x2="51.712" y2="110" gradientTransform="matrix(1 0 0 -1 0 110)">
	<stop  offset="0" style="stop-color:#772F8A"/>
	<stop  offset="1" style="stop-color:#E73C50"/>
</linearGradient>
<path class="st0" d="M20,46.2c-4.6,0-8.3,3.7-8.3,8.2s3.7,8.3,8.2,8.3s8.3-3.7,8.3-8.2c0,0,0,0,0,0C28.2,50,24.5,46.3,20,46.2
	C20,46.2,20,46.2,20,46.2z M40,54.5c0,3.9-1.2,7.8-3.3,11.1l0,0c-0.8,1.2-1.2,2.6-1,4.1c0.2,1.7,0.9,3.2,2.1,4.4
	c2.9,3.3,6.5,5.9,10.6,7.6c0.7,0.2,1.4,0.6,2,1c3.2,2.5,3.9,7.1,1.4,10.3c-1.9,2.5-5.2,3.6-8.2,2.5l0,0c-9-3.5-16.6-9.8-21.6-18l0,0
	c-0.9-1.6-2.5-2.8-4.3-3.1l0,0C6.7,73.2-1.2,63.3,0,52.3s11.1-18.9,22.1-17.6C32.2,35.8,39.9,44.3,40,54.5L40,54.5z M79.5,11.8
	c-4.6,0-8.3,3.7-8.3,8.2c0,4.6,3.7,8.3,8.2,8.3c4.6,0,8.3-3.7,8.3-8.2c0,0,0-0.1,0-0.1C87.7,15.5,84,11.8,79.5,11.8z M79.5,40.1
	c-7.5,0-14.3-4.2-17.7-10.8l0,0c-0.6-1.4-1.6-2.6-3-3.2c-1.6-0.8-3.5-0.9-5.2-0.4c-4.4,0.9-8.6,2.9-12.1,5.7l0,0
	c-3.3,2.4-7.9,1.7-10.3-1.6c-2.3-3.1-1.8-7.4,1.1-9.9l0,0l0.2-0.1l0.1-0.1c7.5-5.9,16.6-9.1,26.1-9.3H59c1.8-0.1,3.4-0.9,4.5-2.3
	l0,0c0-0.1,0.1-0.1,0.1-0.2l0,0c6.7-8.8,19.3-10.4,28-3.6s10.4,19.3,3.6,28C91.6,37.2,85.7,40,79.5,40.1L79.5,40.1z M79.2,80.7
	c-4.6,0-8.3,3.7-8.3,8.2c0,4.6,3.7,8.3,8.2,8.3c4.6,0,8.3-3.7,8.3-8.2C87.5,84.5,83.8,80.7,79.2,80.7C79.2,80.7,79.2,80.7,79.2,80.7
	z M97.9,76.1L97.9,76.1c-0.8,1.5-0.9,3.4-0.3,5l0,0c4.3,10.1-0.5,21.8-10.6,26.1c-10.1,4.3-21.8-0.5-26.1-10.6s0.5-21.8,10.6-26.1
	c2.4-1,5.1-1.6,7.7-1.6c0.5,0,1,0,1.5,0l0,0c1.3,0,2.5-0.3,3.6-1c1.6-1,2.7-2.6,3.2-4.4c1-2.9,1.4-6,1.4-9.1c0-1.4-0.1-2.8-0.3-4.1
	l0,0c-0.5-4,2.3-7.7,6.3-8.3c3.3-0.4,6.4,1.3,7.7,4.4c0.2,0.5,0.4,1.1,0.5,1.7l0,0C104.5,57.8,102.6,67.6,97.9,76.1L97.9,76.1z"/>
<g>
	<path class="st1" d="M134.5,80.9c-0.7-1-1-2.2-0.9-3.8c0.1-1.5,1-2.9,2.7-4c1.1-0.7,2.3-1,3.6-0.9c1.3,0.1,2.5,0.7,3.7,1.9
		c2,2,4.1,3.6,6.4,4.7s5,1.7,8.4,1.7c1-0.1,2.2-0.2,3.4-0.5s2.4-0.8,3.3-1.7c0.9-0.9,1.4-2.2,1.4-4c0-1.5-0.5-2.7-1.6-3.7
		c-1-0.9-2.4-1.7-4.1-2.3c-1.7-0.6-3.6-1.2-5.7-1.8c-2.2-0.6-4.4-1.3-6.6-2.1c-2.3-0.8-4.3-1.8-6.2-3c-1.9-1.2-3.4-2.8-4.6-4.9
		c-1.2-2-1.8-4.6-1.8-7.6c0-3.5,1-6.4,2.9-8.9c1.9-2.4,4.5-4.3,7.6-5.6c3.1-1.3,6.4-2,9.8-2c2.2,0,4.4,0.3,6.8,0.8
		c2.4,0.5,4.6,1.4,6.8,2.5c2.2,1.1,4,2.7,5.4,4.6c0.8,1,1.2,2.3,1.4,3.8c0.1,1.5-0.5,2.8-2,4c-1,0.8-2.3,1.2-3.7,1.1
		c-1.4-0.1-2.5-0.6-3.4-1.4c-1.2-1.5-2.8-2.7-4.8-3.7c-2-0.9-4.3-1.4-6.8-1.4c-1,0-2.2,0.1-3.4,0.4c-1.2,0.2-2.3,0.8-3.2,1.6
		c-0.9,0.8-1.4,2.1-1.4,3.8c0,1.6,0.5,2.9,1.6,3.8c1,0.9,2.5,1.7,4.2,2.3c1.8,0.6,3.7,1.2,5.7,1.7c2.1,0.6,4.2,1.2,6.4,2
		s4.1,1.8,6,3c1.8,1.3,3.3,2.9,4.4,4.9c1.1,2,1.7,4.5,1.7,7.6c0,3.6-1,6.6-3.1,9.1c-2.1,2.5-4.7,4.4-7.8,5.7
		c-3.1,1.3-6.3,1.9-9.6,1.9c-4.1,0-8.2-0.7-12.3-2.1S137.2,84.6,134.5,80.9z"/>
	<path class="st1" d="M212.4,32.7c5,0,8.8,1.1,11.4,3.2c2.6,2.2,4.4,5,5.4,8.6c1,3.6,1.5,7.6,1.5,12v26.7c0,1.8-0.6,3.3-1.8,4.6
		c-1.2,1.2-2.7,1.8-4.5,1.8c-1.8,0-3.3-0.6-4.5-1.8c-1.2-1.2-1.8-2.7-1.8-4.6V56.5c0-2.3-0.3-4.4-0.8-6.2c-0.6-1.8-1.6-3.3-3-4.4
		s-3.6-1.7-6.3-1.7c-2.6,0-4.9,0.6-6.8,1.7c-1.9,1.1-3.3,2.6-4.2,4.4c-0.9,1.8-1.4,3.9-1.4,6.2v26.7c0,1.8-0.6,3.3-1.8,4.6
		c-1.2,1.2-2.7,1.8-4.5,1.8c-1.8,0-3.3-0.6-4.5-1.8s-1.8-2.7-1.8-4.6V18.7c0-1.8,0.6-3.3,1.8-4.5s2.7-1.8,4.5-1.8
		c1.8,0,3.3,0.6,4.5,1.8c1.2,1.2,1.8,2.7,1.8,4.5v25.9l-1.6-0.3c0.6-1.2,1.5-2.5,2.6-3.8c1.1-1.4,2.5-2.6,4.1-3.8
		c1.6-1.2,3.4-2.1,5.3-2.9C208,33,210.1,32.7,212.4,32.7z"/>
	<path class="st1" d="M284.6,32.7c1.8,0,3.3,0.6,4.5,1.8c1.2,1.2,1.8,2.7,1.8,4.6v44.2c0,1.8-0.6,3.3-1.8,4.6
		c-1.2,1.2-2.7,1.8-4.5,1.8c-1.8,0-3.3-0.6-4.5-1.8c-1.2-1.2-1.8-2.7-1.8-4.6v-5.1l2.3,0.9c0,0.9-0.5,2-1.5,3.3
		c-1,1.3-2.3,2.6-4,3.8c-1.7,1.3-3.6,2.3-5.9,3.2c-2.3,0.9-4.7,1.3-7.4,1.3c-4.8,0-9.2-1.2-13.1-3.7c-3.9-2.5-7-5.9-9.2-10.2
		c-2.3-4.3-3.4-9.3-3.4-15c0-5.7,1.1-10.7,3.4-15.1c2.3-4.3,5.3-7.8,9.1-10.2c3.8-2.5,8.1-3.7,12.8-3.7c3,0,5.7,0.5,8.3,1.4
		c2.5,0.9,4.7,2.1,6.5,3.4c1.8,1.4,3.3,2.8,4.3,4.2c1,1.4,1.5,2.6,1.5,3.6l-3.8,1.4V39c0-1.8,0.6-3.3,1.8-4.6
		C281.2,33.3,282.7,32.7,284.6,32.7z M263.4,79.2c3.1,0,5.7-0.8,8-2.3c2.3-1.5,4.1-3.6,5.4-6.3c1.3-2.7,1.9-5.6,1.9-8.9
		c0-3.3-0.6-6.3-1.9-9c-1.3-2.6-3.1-4.7-5.4-6.3c-2.3-1.5-5-2.3-8-2.3c-3,0-5.6,0.8-7.9,2.3c-2.3,1.5-4.1,3.6-5.4,6.3
		c-1.3,2.7-1.9,5.6-1.9,9c0,3.3,0.6,6.2,1.9,8.9c1.3,2.6,3.1,4.7,5.4,6.3C257.8,78.4,260.5,79.2,263.4,79.2z"/>
	<path class="st1" d="M303.7,89.6c-1.8,0-3.3-0.6-4.5-1.8c-1.2-1.2-1.8-2.7-1.8-4.6V40.1c0-1.8,0.6-3.3,1.8-4.5
		c1.2-1.2,2.7-1.8,4.5-1.8s3.3,0.6,4.5,1.8c1.2,1.2,1.8,2.7,1.8,4.5v9.8l-0.7-7c0.8-1.7,1.8-3.1,3-4.4c1.2-1.3,2.6-2.4,4.1-3.2
		c1.5-0.9,3.2-1.5,4.9-1.9c1.7-0.4,3.5-0.6,5.2-0.6c2.1,0,3.8,0.6,5.3,1.8c1.4,1.2,2.1,2.6,2.1,4.2c0,2.3-0.6,4-1.8,5
		c-1.2,1-2.5,1.5-3.9,1.5c-1.3,0-2.5-0.2-3.6-0.7c-1.1-0.5-2.3-0.7-3.7-0.7c-1.3,0-2.5,0.3-3.8,0.9c-1.3,0.6-2.5,1.5-3.6,2.8
		c-1.1,1.3-1.9,2.8-2.6,4.7c-0.7,1.8-1,4-1,6.5v24.8c0,1.8-0.6,3.3-1.8,4.6C307,89,305.5,89.6,303.7,89.6z"/>
	<path class="st1" d="M362.3,90.7c-5.9,0-11.1-1.2-15.4-3.7c-4.4-2.5-7.7-5.8-10-10.1c-2.3-4.3-3.5-9.1-3.5-14.4
		c0-6.3,1.3-11.6,3.8-16s5.9-7.8,10-10.2c4.1-2.4,8.5-3.6,13.1-3.6c3.6,0,6.9,0.7,10.1,2.2c3.2,1.5,6,3.5,8.4,6
		c2.4,2.5,4.4,5.5,5.8,8.8c1.4,3.3,2.1,6.9,2.1,10.7c-0.1,1.7-0.7,3-2,4.1c-1.3,1-2.7,1.6-4.4,1.6h-39.9l-3.1-10.5h38.4l-2.3,2.1
		v-2.8c-0.1-2-0.9-3.8-2.1-5.4c-1.3-1.6-2.9-2.9-4.8-3.8c-1.9-0.9-4-1.4-6.1-1.4c-2.1,0-4,0.3-5.9,0.8c-1.8,0.6-3.4,1.5-4.7,2.8
		c-1.3,1.3-2.4,3.1-3.1,5.3c-0.8,2.2-1.2,5.1-1.2,8.5c0,3.8,0.8,6.9,2.4,9.6c1.6,2.6,3.6,4.6,6.1,6c2.5,1.4,5.1,2,7.9,2
		c2.6,0,4.6-0.2,6.2-0.6c1.5-0.4,2.8-0.9,3.7-1.5c0.9-0.6,1.8-1.1,2.6-1.5c1.3-0.6,2.4-0.9,3.6-0.9c1.5,0,2.8,0.5,3.8,1.6
		c1,1,1.5,2.3,1.5,3.7c0,1.9-1,3.6-2.9,5.1c-1.8,1.5-4.4,2.9-7.6,4C369.1,90.1,365.8,90.7,362.3,90.7z"/>
	<path class="st1" d="M422,32.7c4.9,0,9.2,1.2,13.1,3.7c3.9,2.5,6.9,5.9,9.2,10.2c2.3,4.3,3.4,9.3,3.4,15.1s-1.1,10.7-3.4,15.1
		c-2.3,4.4-5.3,7.8-9.1,10.2c-3.8,2.5-8.1,3.7-12.8,3.7c-2.8,0-5.4-0.5-7.8-1.4c-2.4-0.9-4.6-2-6.4-3.4c-1.8-1.4-3.3-2.8-4.3-4.2
		c-1-1.4-1.5-2.6-1.5-3.6l3.2-1.4v7.6c0,1.8-0.6,3.3-1.8,4.6c-1.2,1.2-2.7,1.8-4.5,1.8s-3.3-0.6-4.5-1.8c-1.2-1.2-1.8-2.7-1.8-4.6
		V18.7c0-1.8,0.6-3.3,1.8-4.5c1.2-1.2,2.7-1.8,4.5-1.8s3.3,0.6,4.5,1.8c1.2,1.2,1.8,2.7,1.8,4.5v26.6l-1.8-0.9c0-0.9,0.5-2,1.5-3.3
		c1-1.3,2.3-2.6,4-3.9c1.7-1.3,3.6-2.3,5.8-3.2C417.3,33.1,419.6,32.7,422,32.7z M420.5,44.2c-3.1,0-5.7,0.8-8,2.3
		c-2.3,1.5-4.1,3.6-5.4,6.2s-1.9,5.6-1.9,8.9c0,3.3,0.6,6.3,1.9,8.9c1.3,2.7,3.1,4.8,5.4,6.3c2.3,1.5,5,2.3,8,2.3
		c3.1,0,5.7-0.8,8-2.3c2.3-1.5,4-3.6,5.3-6.3c1.3-2.7,1.9-5.7,1.9-8.9c0-3.3-0.6-6.3-1.9-8.9c-1.3-2.6-3.1-4.7-5.3-6.2
		C426.2,44.9,423.5,44.2,420.5,44.2z"/>
	<path class="st1" d="M460.6,26.9c-2.4,0-4-0.4-5-1.1c-1-0.8-1.5-2.1-1.5-4.1v-2c0-2,0.5-3.4,1.6-4.1c1.1-0.7,2.7-1.1,5-1.1
		c2.4,0,4.1,0.4,5.1,1.1s1.5,2.1,1.5,4.1v2c0,2-0.5,3.4-1.6,4.1C464.7,26.5,463,26.9,460.6,26.9z M467,83.2c0,1.8-0.6,3.3-1.8,4.6
		c-1.2,1.2-2.7,1.8-4.5,1.8s-3.3-0.6-4.5-1.8s-1.8-2.7-1.8-4.6V40.1c0-1.8,0.6-3.3,1.8-4.5s2.7-1.8,4.5-1.8s3.3,0.6,4.5,1.8
		c1.2,1.2,1.8,2.7,1.8,4.5V83.2z"/>
	<path class="st1" d="M501.2,32.7c4,0,7.4,0.4,10.4,1.3c3,0.8,5.3,2,6.9,3.5c1.6,1.5,2.5,3.3,2.5,5.4c0,1.4-0.4,2.7-1.3,3.9
		c-0.8,1.2-2.1,1.8-3.7,1.8c-1.1,0-2-0.2-2.8-0.5c-0.7-0.3-1.4-0.7-1.9-1.2c-0.6-0.5-1.2-0.9-2-1.4c-0.7-0.4-1.8-0.7-3.2-1
		c-1.4-0.2-2.5-0.4-3.2-0.4c-3.6,0-6.6,0.8-9,2.3c-2.5,1.5-4.4,3.6-5.7,6.2s-2,5.6-2,9c0,3.3,0.7,6.3,2,8.9c1.4,2.6,3.2,4.7,5.6,6.2
		c2.4,1.5,5.2,2.3,8.3,2.3c1.7,0,3.2-0.1,4.5-0.3c1.3-0.2,2.3-0.5,3.1-0.9c1-0.6,1.8-1.1,2.6-1.8c0.8-0.6,1.9-0.9,3.4-0.9
		c1.8,0,3.2,0.6,4.2,1.7c1,1.1,1.5,2.6,1.5,4.2c0,1.7-1,3.3-2.9,4.8c-2,1.4-4.5,2.6-7.7,3.4c-3.2,0.9-6.6,1.3-10.3,1.3
		c-5.5,0-10.3-1.3-14.3-3.8c-4-2.5-7.2-6-9.4-10.4s-3.3-9.3-3.3-14.7c0-5.7,1.2-10.7,3.5-15.1c2.3-4.3,5.6-7.8,9.7-10.2
		C491.1,33.9,495.8,32.7,501.2,32.7z"/>
	<path class="st1" d="M579.4,61.7c0,5.7-1.3,10.7-3.8,15.1s-6,7.7-10.2,10.2c-4.3,2.4-9.1,3.7-14.4,3.7c-5.3,0-10.1-1.2-14.4-3.7
		c-4.3-2.4-7.7-5.8-10.2-10.2c-2.5-4.4-3.8-9.4-3.8-15.1s1.3-10.7,3.8-15.1c2.5-4.3,6-7.8,10.2-10.2c4.3-2.5,9.1-3.7,14.4-3.7
		c5.3,0,10.1,1.2,14.4,3.7c4.3,2.5,7.7,5.9,10.2,10.2C578.1,51,579.4,56,579.4,61.7z M566.8,61.7c0-3.6-0.7-6.6-2.1-9.2
		c-1.4-2.6-3.3-4.7-5.7-6.1s-5.1-2.2-8-2.2c-2.9,0-5.6,0.7-8,2.2c-2.4,1.5-4.3,3.5-5.7,6.1c-1.4,2.6-2.1,5.7-2.1,9.2
		c0,3.5,0.7,6.5,2.1,9.1c1.4,2.6,3.3,4.7,5.7,6.1c2.4,1.5,5.1,2.2,8,2.2c2.9,0,5.6-0.7,8-2.2s4.3-3.5,5.7-6.1
		C566.1,68.2,566.8,65.2,566.8,61.7z"/>
</g>
</svg>
